<?xml version="1.0" encoding="UTF-8" standalone="no"?>
<svg width="52px" height="52px" viewBox="0 0 52 52" version="1.1" xmlns="http://www.w3.org/2000/svg" xmlns:xlink="http://www.w3.org/1999/xlink" xmlns:sketch="http://www.bohemiancoding.com/sketch/ns">
    <!-- Generator: Sketch 3.4 (15575) - http://www.bohemiancoding.com/sketch -->
    <title>Left Icon Copy 3 + Oval 83</title>
    <desc>Created with Sketch.</desc>
    <defs></defs>
    <g id="Page-1" stroke="none" stroke-width="1" fill="none" fill-rule="evenodd" sketch:type="MSPage">
        <g id="Intro" sketch:type="MSArtboardGroup" transform="translate(-694.000000, -800.000000)">
            <g id="Left-Icon-Copy-3-+-Oval-83" sketch:type="MSLayerGroup" transform="translate(695.000000, 801.000000)">
                <path d="M28.5,35.5 L19.5,26.5 C19.3877507,26.8324956 19.3877507,26.1671099 19.5,26.5 L28.5,17.5 C28.9283658,17.4487153 29.2927444,17.4487153 29.5,17.5 L30.5,18.5 C30.5562686,18.603278 30.5562686,18.9362339 30.5,19.5 L22.5,26.5 C22.4610791,26.3333248 22.4610791,26.6662807 22.5,26.5 L30.5,33.5 C30.5562686,34.0628456 30.5562686,34.3968535 30.5,34.5 L29.5,35.5 C29.2927444,35.5514162 28.9283658,35.5514162 28.5,35.5" id="Left-Icon-Copy-3" fill="#FFFFFF" sketch:type="MSShapeGroup" transform="translate(25.500000, 27.000000) scale(-1, 1) rotate(-90.000000) translate(-25.500000, -27.000000) "></path>
                <circle id="Oval-83" stroke="#FFFFFF" stroke-width="2" sketch:type="MSShapeGroup" cx="25" cy="25" r="25"></circle>
            </g>
        </g>
    </g>
</svg>