<?xml version="1.0" encoding="UTF-8" standalone="no"?>
<svg width="19px" height="18px" viewBox="0 0 19 18" version="1.1" xmlns="http://www.w3.org/2000/svg" xmlns:xlink="http://www.w3.org/1999/xlink" xmlns:sketch="http://www.bohemiancoding.com/sketch/ns">
    <!-- Generator: Sketch 3.4 (15575) - http://www.bohemiancoding.com/sketch -->
    <title>Fill 5 Copy</title>
    <desc>Created with Sketch.</desc>
    <defs></defs>
    <g id="Page-1" stroke="none" stroke-width="1" fill="none" fill-rule="evenodd" sketch:type="MSPage">
        <g id="Catalog" sketch:type="MSArtboardGroup" transform="translate(-1164.000000, -3466.000000)" fill="#7C7C7C" opacity="0.502623601">
            <g id="Social-Copy-2" sketch:type="MSLayerGroup" transform="translate(1048.000000, 3465.940175)">
                <path d="M122,8 C122.628287,7.97953321 123.14714,7.78078995 124,7 C123.762509,7.13716338 123.891199,6.86301616 124,7 C123.982451,6.30179533 124,6.06535009 124,6 C124,5.04470377 123.76134,4.20879713 123,3 C123.060567,2.96247756 122.766336,2.63339318 122,2 C122.028127,2.14057451 121.599357,2.01400359 121,2 C120.473324,2.01400359 119.939848,2.24344704 120,3 C119.156597,3.15421903 118.985206,3.67504488 119,4 C119.000999,5.01023339 119.251359,5.80143627 120,7 C119.994248,7.00682226 120.307197,7.33213645 121,8 C121.07407,7.86642729 121.512199,8 122,8 L122,8 Z M126,15 C126,14.2396168 125.790429,13.7813231 125,13 C124.92837,13.0192704 124.235846,12.564694 123,12 C123.132312,12.0118739 122.942759,12.0049703 123,12 C122.596184,11.9916941 122.265874,12.0049703 122,12 C121.21051,12.1064003 120.675008,12.204113 120,12 C119.998123,12.3793586 119.816703,12.4398979 120,13 C119.34939,12.6082399 119.112293,12.733036 119,13 C118.636847,13.0633473 118.439162,13.2720489 118,14 C118.092587,13.7845094 118,14.1015445 118,14 C118,15.2002811 118.402878,15.7998334 119,16 C119.973725,16.7440353 121.021583,16.9867238 122,17 C123.543322,16.9867238 124.45355,16.7711187 125,16 C125.694088,15.941623 126,15.4127 126,15 L126,15 Z M125,2 C125.106565,1.89247855 125.280611,2.01948511 125,2 C125.661069,2.36045768 125.843053,2.57499579 126,3 C126.192366,3.0687195 126.343206,3.35133771 126,4 C126.583817,4.00524987 126.638168,4.38626956 127,5 C126.623511,5.62086488 126.428702,6.2593303 126,7 C125.869313,6.97102473 125.673893,7.18499075 125,7 C125.239695,7.57745247 124.997252,7.77711593 125,8 C124.592366,8.11808851 124.456183,8.27427225 124,8 C124.183817,8.63011947 124.110534,8.84065287 124,9 C124.110534,9.31263672 124.185649,9.50486286 124,10 C124.464733,9.80292781 124.589924,9.92993438 125,10 L126,11 C126.069008,11.0443884 126.525802,11.4688878 127,12 C127.28855,12.4054181 127.480916,13.0227158 127,14 C127.496183,14.8665994 126.967328,15.8254417 126,17 C124.814656,17.5240114 123.232977,17.9708228 121,18 C119.436336,17.9851254 118.144733,17.6521622 117,17 C116.430534,16.3906781 116,15.6623927 116,15 C116,14.4014807 116.139847,13.941511 116,13 C116.691908,12.9266027 117.184122,12.4809356 118,12 C118.696183,11.683998 119.536489,11.4088171 120,11 C121.28916,11.154804 122.012824,11.0901565 123,11 C122.410992,10.8636042 122.252214,10.637052 122,10 C121.950534,10.1627797 121.869313,9.88187784 122,10 C121.869313,9.35611644 121.900458,9.19192327 122,9 C122.016489,8.9218913 122.066565,8.79374054 122,9 C121.832672,8.70620899 121.568244,8.72108363 121,9 C120.004885,8.70620899 119.002748,8.33262662 118,8 C117.59145,6.91667508 117.231145,6.12202591 117,5 C117.231145,4.118526 117.74229,3.12364126 119,2 C119.46687,1.70826182 120.196031,1.36671715 121,1 C121.702595,1.0692243 122.404885,1 123,1 L128,1 L126,2 L125,2 Z M135,9 L133,9 L133,7 L131,7 L131,9 L129,9 L129,11 L131,11 L131,13 L133,13 L133,11 L135,11 L135,9 Z" id="Fill-5-Copy" sketch:type="MSShapeGroup"></path>
            </g>
        </g>
    </g>
</svg>