<?xml version="1.0"?>
<!--Icons from directory ""-->
<svg xmlns="http://www.w3.org/2000/svg" width="62" height="331" viewBox="0 0 62 331"><svg xmlns:sketch="http://www.bohemiancoding.com/sketch/ns" xmlns:xlink="http://www.w3.org/1999/xlink" height="52" width="52" version="1.1" viewBox="0 0 52 52" id="Bottom_Arrow" y="0"><title>Left Icon Copy 3 + Oval 83</title><desc>Created with Sketch.</desc><g id="Bottom_Arrow-Page-1" fill-rule="evenodd" sketch:type="MSPage" fill="none"><g id="Bottom_Arrow-Intro" transform="translate(-694 -800)" sketch:type="MSArtboardGroup"><g id="Bottom_Arrow-Left-Icon-Copy-3-+-Oval-83" transform="translate(695 801)" sketch:type="MSLayerGroup"><path id="Bottom_Arrow-Left-Icon-Copy-3" sketch:type="MSShapeGroup" fill="#fff" d="m28.5 35.5l-9-9c-0.112 0.332-0.112-0.333 0 0l9-9c0.428-0.051 0.793-0.051 1 0l1 1c0.056 0.103 0.056 0.436 0 1l-8 7c-0.039-0.167-0.039 0.166 0 0l8 7c0.056 0.563 0.056 0.897 0 1l-1 1c-0.207 0.051-0.572 0.051-1 0" transform="translate(25.5 27) scale(-1 1) rotate(-90) translate(-25.5 -27)"/><circle id="Bottom_Arrow-Oval-83" r="25" cy="25" sketch:type="MSShapeGroup" stroke="#fff" cx="25" stroke-width="2"/></g></g></g></svg><svg xmlns:sketch="http://www.bohemiancoding.com/sketch/ns" xmlns:xlink="http://www.w3.org/1999/xlink" height="14" width="15" version="1.1" viewBox="0 0 15 14" id="Cart" y="52"><title>Group</title><desc>Created with Sketch.</desc><g id="Cart-Page-1" fill-rule="evenodd" sketch:type="MSPage" fill="none"><g id="Cart-Product_Mobile" transform="translate(-329 -24)" fill="#BC8420" sketch:type="MSArtboardGroup"><g id="Cart-Group" transform="translate(336 31) scale(-1 1) translate(-8 -7)" sketch:type="MSLayerGroup"><circle id="Cart-Oval" cy="12.5" cx="3.5" r="1.5" sketch:type="MSShapeGroup"/><circle id="Cart-Oval" cy="12.5" cx="11.5" r="1.5" sketch:type="MSShapeGroup"/><path id="Cart-Shape" sketch:type="MSShapeGroup" d="m13.969 0.00010364h-1.271c-0.917 0-1.022 0.8331-1.023 0.84051l-0.028 0.28739v-0.0014l-0.303 1.5209c-0.067 0.2288-0.268 0.5955-0.892 0.5955h-10.452l1.8429 6.757h9.9891l0.886-5.615 0.256-1.3721 0.017-0.0909c0.05-0.2409 0.272-0.9172 1.19-0.9347h0.112c0.227-0.0135 0.721-0.1272 0.707-0.8836v-0.12649c0-1.0081-1.031-0.97711-1.031-0.97711v0.00000364z"/></g></g></g></svg><svg xmlns:sketch="http://www.bohemiancoding.com/sketch/ns" xmlns:xlink="http://www.w3.org/1999/xlink" height="5" width="9" version="1.1" viewBox="0 0 9 5" id="Dropdown_Arrow" y="66"><title>Rectangle 775 Copy</title><desc>Created with Sketch.</desc><g id="Dropdown_Arrow-Page-1" fill-rule="evenodd" sketch:type="MSPage" fill="none"><g id="Dropdown_Arrow-Account" transform="translate(-988 -647)" fill="#202020" sketch:type="MSArtboardGroup"><path id="Dropdown_Arrow-Rectangle-775-Copy" sketch:type="MSShapeGroup" d="m988.43 647l-0.23 0.23 4.23 4.23 4.23-4.23-0.23-0.23h-8z"/></g></g></svg><svg xmlns:sketch="http://www.bohemiancoding.com/sketch/ns" xmlns:xlink="http://www.w3.org/1999/xlink" height="20" width="9" version="1.1" viewBox="0 0 9 20" id="Facebook" y="71"><title>Facebook Copy</title><desc>Created with Sketch.</desc><g id="Facebook-Page-1" fill-rule="evenodd" sketch:type="MSPage" fill="none"><g id="Facebook-Catalog" opacity=".50262" transform="translate(-1090 -3465)" fill="#7C7C7C" sketch:type="MSArtboardGroup"><g id="Facebook-Social-Copy-2" transform="translate(1048 3465.9)" sketch:type="MSLayerGroup"><path id="Facebook-Facebook-Copy" sketch:type="MSShapeGroup" d="m48 19h-4v-9h-2v-4h2v-2c-0.006-2.4096 1.12-4 4-4h3v3h-2c-0.928 0.2747-1.012 0.7328-1 2v1h3v4h-3v9"/></g></g></g></svg><svg xmlns:sketch="http://www.bohemiancoding.com/sketch/ns" xmlns:xlink="http://www.w3.org/1999/xlink" height="18" width="19" version="1.1" viewBox="0 0 19 18" id="Google" y="91"><title>Fill 5 Copy</title><desc>Created with Sketch.</desc><g id="Google-Page-1" fill-rule="evenodd" sketch:type="MSPage" fill="none"><g id="Google-Catalog" opacity=".50262" transform="translate(-1164 -3466)" fill="#7C7C7C" sketch:type="MSArtboardGroup"><g id="Google-Social-Copy-2" transform="translate(1048 3465.9)" sketch:type="MSLayerGroup"><path id="Google-Fill-5-Copy" sketch:type="MSShapeGroup" d="m122 8c0.63-0.0205 1.15-0.2192 2-1-0.24 0.1372-0.11-0.137 0 0-0.02-0.6982 0-0.9346 0-1 0-0.9553-0.24-1.7912-1-3 0.06-0.0375-0.23-0.3666-1-1 0.03 0.1406-0.4 0.014-1 0-0.53 0.014-1.06 0.2434-1 1-0.84 0.1542-1.01 0.675-1 1 0 1.0102 0.25 1.8014 1 3-0.01 0.0068 0.31 0.3321 1 1 0.07-0.1336 0.51 0 1 0zm4 7c0-0.76-0.21-1.219-1-2-0.07 0.019-0.76-0.435-2-1 0.13 0.012-0.06 0.005 0 0-0.4-0.008-0.73 0.005-1 0-0.79 0.106-1.32 0.204-2 0 0 0.379-0.18 0.44 0 1-0.65-0.392-0.89-0.267-1 0-0.36 0.063-0.56 0.272-1 1 0.09-0.215 0 0.102 0 0 0 1.2 0.4 1.8 1 2 0.97 0.744 2.02 0.987 3 1 1.54-0.013 2.45-0.229 3-1 0.69-0.058 1-0.587 1-1zm-1-13c0.11-0.1075 0.28 0.0195 0 0 0.66 0.3605 0.84 0.575 1 1 0.19 0.0687 0.34 0.3513 0 1 0.58 0.0052 0.64 0.3863 1 1-0.38 0.6209-0.57 1.2593-1 2-0.13-0.029-0.33 0.185-1 0 0.24 0.5775 0 0.7771 0 1-0.41 0.1181-0.54 0.2743-1 0 0.18 0.6301 0.11 0.8407 0 1 0.11 0.3126 0.19 0.5049 0 1 0.46-0.1971 0.59-0.0701 1 0l1 1c0.07 0.044 0.53 0.469 1 1 0.29 0.405 0.48 1.023 0 2 0.5 0.867-0.03 1.825-1 3-1.19 0.524-2.77 0.971-5 1-1.56-0.015-2.86-0.348-4-1-0.57-0.609-1-1.338-1-2 0-0.599 0.14-1.058 0-2 0.69-0.073 1.18-0.519 2-1 0.7-0.316 1.54-0.591 2-1 1.29 0.155 2.01 0.09 3 0-0.59-0.136-0.75-0.363-1-1-0.05 0.163-0.13-0.1181 0 0-0.13-0.6439-0.1-0.8081 0-1 0.02-0.0781 0.07-0.2063 0 0-0.17-0.2938-0.43-0.2789-1 0-1-0.2938-2-0.6674-3-1-0.41-1.0833-0.77-1.878-1-3 0.23-0.8815 0.74-1.8764 2-3 0.47-0.2917 1.2-0.6333 2-1 0.7 0.0692 1.4 0 2 0h5l-2 1h-1zm10 7h-2v-2h-2v2h-2v2h2v2h2v-2h2v-2z"/></g></g></g></svg><svg xmlns:sketch="http://www.bohemiancoding.com/sketch/ns" xmlns:xlink="http://www.w3.org/1999/xlink" height="62" width="62" version="1.1" viewBox="0 0 62 62" id="Left_Arrow" y="109"><title>Line + Line Copy 2</title><desc>Created with Sketch.</desc><g id="Left_Arrow-Page-1" fill-rule="evenodd" sketch:type="MSPage" fill="none"><g id="Left_Arrow-Catalog" stroke-width="2" stroke="#202020" transform="translate(-59 -1279)" sketch:type="MSArtboardGroup"><g id="Left_Arrow-Line-+-Line-Copy-2" transform="translate(90 1310) scale(-1 1) translate(-30 -30)" sketch:type="MSLayerGroup"><circle id="Left_Arrow-Oval-16" opacity=".59935" sketch:type="MSShapeGroup" cy="30" cx="30" r="30"/><path id="Left_Arrow-Line" opacity="0.6" stroke-linecap="square" d="m17 30h24" sketch:type="MSShapeGroup"/><path id="Left_Arrow-Line-Copy" opacity="0.6" stroke-linecap="square" d="m33 20l9.697 10-9.697 10" sketch:type="MSShapeGroup"/></g></g></g></svg><svg xmlns:sketch="http://www.bohemiancoding.com/sketch/ns" xmlns:xlink="http://www.w3.org/1999/xlink" height="12" width="21" version="1.1" viewBox="0 0 21 12" id="Menu" y="171"><title>Rectangle 209</title><desc>Created with Sketch.</desc><g id="Menu-Page-1" fill-rule="evenodd" sketch:type="MSPage" fill="none"><g id="Menu-Catalog" transform="translate(-81 -52)" fill="#BC8420" sketch:type="MSArtboardGroup"><g id="Menu-Group" transform="translate(60 29)" sketch:type="MSLayerGroup"><path id="Menu-Rectangle-209" sketch:type="MSShapeGroup" d="m21 23h21v2h-21v-2zm0 5h21v2h-21v-2zm0 5h21v2h-21v-2z"/></g></g></g></svg><svg xmlns:sketch="http://www.bohemiancoding.com/sketch/ns" xmlns:xlink="http://www.w3.org/1999/xlink" height="2" width="10" version="1.1" viewBox="0 0 10 2" id="Minus" y="183"><title>Rectangle 485</title><desc>Created with Sketch.</desc><g id="Minus-Page-1" fill-rule="evenodd" sketch:type="MSPage" fill="none"><g id="Minus-Product_Mobile" transform="translate(-335 -695)" fill="#7C7C7C" sketch:type="MSArtboardGroup"><rect id="Minus-Rectangle-485" sketch:type="MSShapeGroup" height="2" width="10" y="695" x="335"/></g></g></svg><svg xmlns:sketch="http://www.bohemiancoding.com/sketch/ns" xmlns:xlink="http://www.w3.org/1999/xlink" height="62" width="62" version="1.1" viewBox="0 0 62 62" id="Right_Arrow" y="185"><title>Line + Line Copy</title><desc>Created with Sketch.</desc><g id="Right_Arrow-Page-1" fill-rule="evenodd" sketch:type="MSPage" fill="none"><g id="Right_Arrow-Catalog" stroke-width="2" stroke="#202020" transform="translate(-1319 -1279)" sketch:type="MSArtboardGroup"><g id="Right_Arrow-Line-+-Line-Copy" transform="translate(1320 1280)" sketch:type="MSLayerGroup"><circle id="Right_Arrow-Oval-16" opacity=".59935" sketch:type="MSShapeGroup" cy="30" cx="30" r="30"/><path id="Right_Arrow-Line" opacity="0.6" stroke-linecap="square" d="m17 30h24" sketch:type="MSShapeGroup"/><path id="Right_Arrow-Line-Copy" opacity="0.6" stroke-linecap="square" d="m33 20l9.697 10-9.697 10" sketch:type="MSShapeGroup"/></g></g></g></svg><svg xmlns:sketch="http://www.bohemiancoding.com/sketch/ns" xmlns:xlink="http://www.w3.org/1999/xlink" height="13" width="8" version="1.1" viewBox="0 0 8 13" id="Right_Arrow_2" y="247"><title>Left Icon Copy 3</title><desc>Created with Sketch.</desc><g id="Right_Arrow_2-Page-1" fill-rule="evenodd" sketch:type="MSPage" fill="none"><g id="Right_Arrow_2-Catalog" transform="translate(-1282 -1432)" fill="#202020" sketch:type="MSArtboardGroup"><path id="Right_Arrow_2-Left-Icon-Copy-3" sketch:type="MSShapeGroup" d="m1288 1444.8l-6-6c-0.1 0.2-0.1-0.2 0 0l6-6h0.7l0.6 0.7c0.1 0 0.1 0.3 0 0.6l-5.3 4.7v0l5.3 4.7c0.1 0.3 0.1 0.6 0 0.6l-0.6 0.7h-0.7" transform="translate(1286 1439.1) scale(-1 1) translate(-1286 -1439.1)"/></g></g></svg><svg xmlns:sketch="http://www.bohemiancoding.com/sketch/ns" xmlns:xlink="http://www.w3.org/1999/xlink" height="19" width="19" version="1.1" viewBox="0 0 19 19" id="Search" y="260"><title>Search Icon Copy</title><desc>Created with Sketch.</desc><g id="Search-Page-1" fill-rule="evenodd" sketch:type="MSPage" fill="none"><g id="Search-Catalog" transform="translate(-1230 -48)" fill="#9C9C9C" sketch:type="MSArtboardGroup"><g id="Search-Group" transform="translate(60 29)" sketch:type="MSLayerGroup"><path id="Search-Search-Icon-Copy" sketch:type="MSShapeGroup" d="m1188.4 35.706l-4.7-4.692c-0.2-0.176-0.2-0.448-0.1-0.655 1.9-2.929 1.5-6.957-1.3-9.362-2.7-2.315-6.9-2.235-9.5 0.175-3 2.768-3.1 7.478-0.2 10.344 2.4 2.443 6.2 2.74 9 0.904 0.2-0.138 0.5-0.12 0.6 0.057l4.7 4.682c0.2 0.202 0.5 0.203 0.7 0.001l0.7-0.728c0.2-0.2 0.3-0.525 0.1-0.726zm-14.4-5.647c-1.9-1.988-1.9-5.224 0-7.213 2-1.989 5.3-1.989 7.3 0 1.9 1.989 1.9 5.225 0 7.213-2 1.989-5.3 1.989-7.3 0z"/></g></g></g></svg><svg xmlns:sketch="http://www.bohemiancoding.com/sketch/ns" xmlns:xlink="http://www.w3.org/1999/xlink" height="18" width="19" version="1.1" viewBox="0 0 19 18" id="Subscribe_Button" y="279"><title>Icon Copy 6</title><desc>Created with Sketch.</desc><g id="Subscribe_Button-Page-1" fill-rule="evenodd" sketch:type="MSPage" fill="none"><g id="Subscribe_Button-Catalog" transform="translate(-1262 -3392)" fill="#BC8420" sketch:type="MSArtboardGroup"><path id="Subscribe_Button-Icon-Copy-6" sketch:type="MSShapeGroup" d="m1263 3400l5 1c0 0.3 0.3 0.2 1 0l9-6-8 7c0.1 0.6 0 0.9 0 1v6c0 1 0.8 1.2 1 1l2-5c0.2-0.2 0.6-0.3 1 0l5 3c0.8 0.1 1.3-0.2 1-1l1-14c0-0.8-0.4-1.1-1-1l-17 7c-0.1-0.2-0.1 0.5 0 1"/></g></g></svg><svg xmlns:sketch="http://www.bohemiancoding.com/sketch/ns" xmlns:xlink="http://www.w3.org/1999/xlink" height="17" width="19" version="1.1" viewBox="0 0 19 17" id="Twitter" y="297"><title>Twitter Copy</title><desc>Created with Sketch.</desc><g id="Twitter-Page-1" fill-rule="evenodd" sketch:type="MSPage" fill="none"><g id="Twitter-Catalog" opacity=".50262" transform="translate(-1048 -3467)" fill="#7C7C7C" sketch:type="MSArtboardGroup"><g id="Twitter-Social-Copy-2" transform="translate(1048 3465.9)" sketch:type="MSLayerGroup"><path id="Twitter-Twitter-Copy" sketch:type="MSShapeGroup" d="m17 6c0.062 0.1584 0.066 0.3328 0 1 0.066 4.846-3.854 11-11 11-2.2252 0-4.2741-0.668-6-2 0.30521 0.223 0.61535 0.242 1 0 1.7568 0.242 3.4374-0.404 5-1-1.9348-0.52-3.3742-1.688-4-3 0.3679-0.245 0.612-0.219 1 0 0.2185-0.219 0.5631-0.269 1 0-1.893-0.732-3.236-2.3647-3-4-0.23598-0.3388-0.23598-0.3562 0 0 0.2898-0.0705 0.8904 0.1111 2 0-1.5163-0.5919-2.2045-1.8283-2-3-0.20448-0.9698-0.01249-1.6635 0-2 2.2461 2.1831 5.118 3.7919 8 4 0.2913-0.3356 0.2568-0.6437 0-1 0.2568-2.1912 2.001-4 4-4 1.276 0 2.289 0.4907 3 1 0.888 0.0947 1.722-0.241 2-1 0.185 1.2385-0.434 2.0302-1 3 0.55-0.5668 1.301-0.7841 2-1-0.523 0.7046-1.183 1.4157-2 2"/></g></g></g></svg><svg xmlns:sketch="http://www.bohemiancoding.com/sketch/ns" xmlns:xlink="http://www.w3.org/1999/xlink" height="17" width="22" version="1.1" viewBox="0 0 22 17" id="Youtube" y="314"><title>Fill 25 Copy</title><desc>Created with Sketch.</desc><g id="Youtube-Page-1" fill-rule="evenodd" sketch:type="MSPage" fill="none"><g id="Youtube-Catalog" opacity=".50262" transform="translate(-1120 -3467)" fill="#7C7C7C" sketch:type="MSArtboardGroup"><g id="Youtube-Social-Copy-2" transform="translate(1048 3465.9)" sketch:type="MSLayerGroup"><path id="Youtube-Fill-25-Copy" sketch:type="MSShapeGroup" d="m81 13v-6l6 3-6 3zm13-8c-0.22 0.4514-0.435-1.1161-1-2-0.931-0.7128-1.869-0.7171-2-1h-8-8c-0.132 0.2829-1.069 0.2872-2 1-0.566 0.8839-0.78 2.4514-1 2 0.22 0.4514 0 2.2926 0 4v2c0 1.7 0.22 3.541 0 4 0.22-0.459 0.434 1.108 1 2 0.931 0.705 2.03 0.677 3 1 1.28-0.054 7 0 7 0s4.623-0.007 8 0c0.131-0.291 1.069-0.295 2-1 0.565-0.892 0.78-2.459 1-2-0.22-0.459 0-2.3 0-4v-2c0-1.7074-0.22-3.5486 0-4z"/></g></g></g></svg></svg>
