<?xml version="1.0" encoding="UTF-8" standalone="no"?>
<svg width="79px" height="60px" viewBox="0 0 79 60" version="1.1" xmlns="http://www.w3.org/2000/svg" xmlns:xlink="http://www.w3.org/1999/xlink" xmlns:sketch="http://www.bohemiancoding.com/sketch/ns">
    <!-- Generator: Sketch 3.5.1 (25234) - http://www.bohemiancoding.com/sketch -->
    <title>qty</title>
    <desc>Created with Sketch.</desc>
    <defs></defs>
    <g id="Page-1" stroke="none" stroke-width="1" fill="none" fill-rule="evenodd" sketch:type="MSPage">
        <g id="Product" sketch:type="MSArtboardGroup" transform="translate(-877.000000, -809.000000)">
            <g id="qty" sketch:type="MSLayerGroup" transform="translate(877.000000, 809.000000)">
                <path d="M0,6.0000383 C0,2.68630865 2.68662486,0 6.00471685,0 L61.9952831,0 C65.3115967,0 68,2.69463714 68,6.0000383 L68,53.9999617 C68,57.3136914 65.3133751,60 61.9952831,60 L6.00471685,60 C2.68840331,60 0,57.3053629 0,53.9999617 L0,6.0000383 Z" id="Rectangle-491" stroke="#E9E9E9" stroke-width="2" sketch:type="MSShapeGroup"></path>
                <path d="M48,6.0000383 C48,2.68630865 50.6887015,0 53.998845,0 L72.001155,0 C75.3142256,0 78,2.69463714 78,6.0000383 L78,53.9999617 C78,57.3136914 75.3112985,60 72.001155,60 L53.998845,60 C50.6857744,60 48,57.3053629 48,53.9999617 L48,6.0000383 Z" id="Rectangle-489" fill="#F5F5F5" sketch:type="MSShapeGroup"></path>
                <rect id="Rectangle-490" opacity="0.241196362" fill="#BDBCBA" sketch:type="MSShapeGroup" x="49" y="30" width="30" height="1"></rect>
                <g id="Back-Arrow-Copy-+-Back-Arrow-Copy-2" transform="translate(56.000000, 12.000000)" fill="#A8A8A8" sketch:type="MSShapeGroup">
                    <path d="M9,10 L3,4 C2.92847985,4.22215079 2.92847985,3.77819988 3,4 L9,-2 C8.99990842,-2.03419053 9.23177656,-2.03419053 9,-2 L10,-1 C10.0358059,-1.26446523 10.0358059,-1.04248977 10,-1 L5,4 C4.88452381,3.88901227 4.88452381,4.11098773 5,4 L10,9 C10.0358059,9.04248977 10.0358059,9.26446523 10,9 L9,10 C9.23177656,10.0341905 8.99990842,10.0341905 9,10" id="Back-Arrow-Copy" transform="translate(6.500000, 4.000000) rotate(-270.000000) translate(-6.500000, -4.000000) "></path>
                    <path d="M9,40 L3,34 C2.92847985,34.2221508 2.92847985,33.7781999 3,34 L9,28 C8.99990842,27.9658095 9.23177656,27.9658095 9,28 L10,29 C10.0358059,28.7355348 10.0358059,28.9575102 10,29 L5,34 C4.88452381,33.8890123 4.88452381,34.1109877 5,34 L10,39 C10.0358059,39.0424898 10.0358059,39.2644652 10,39 L9,40 C9.23177656,40.0341905 8.99990842,40.0341905 9,40" id="Back-Arrow-Copy-2" transform="translate(6.500000, 34.000000) scale(1, -1) rotate(-270.000000) translate(-6.500000, -34.000000) "></path>
                </g>
            </g>
        </g>
    </g>
</svg>