<?xml version="1.0" encoding="UTF-8" standalone="no"?>
<svg width="8px" height="13px" viewBox="0 0 8 13" version="1.1" xmlns="http://www.w3.org/2000/svg" xmlns:xlink="http://www.w3.org/1999/xlink" xmlns:sketch="http://www.bohemiancoding.com/sketch/ns">
    <!-- Generator: Sketch 3.4 (15575) - http://www.bohemiancoding.com/sketch -->
    <title>Left Icon Copy 3</title>
    <desc>Created with Sketch.</desc>
    <defs></defs>
    <g id="Page-1" stroke="none" stroke-width="1" fill="none" fill-rule="evenodd" sketch:type="MSPage">
        <g id="Catalog" sketch:type="MSArtboardGroup" transform="translate(-1282.000000, -1432.000000)" fill="#202020">
            <path d="M1288,1444.7975 L1282,1438.7975 C1281.92517,1439.01916 1281.92517,1438.57557 1282,1438.7975 L1288,1432.7975 C1288.28558,1432.76331 1288.5285,1432.76331 1288.66667,1432.7975 L1289.33333,1433.46417 C1289.37085,1433.53302 1289.37085,1433.75499 1289.33333,1434.13083 L1284,1438.7975 C1283.97405,1438.68638 1283.97405,1438.90835 1284,1438.7975 L1289.33333,1443.46417 C1289.37085,1443.8394 1289.37085,1444.06207 1289.33333,1444.13083 L1288.66667,1444.7975 C1288.5285,1444.83178 1288.28558,1444.83178 1288,1444.7975" id="Left-Icon-Copy-3" sketch:type="MSShapeGroup" transform="translate(1286.000000, 1439.130833) scale(-1, 1) translate(-1286.000000, -1439.130833) "></path>
        </g>
    </g>
</svg>