<?xml version="1.0" encoding="UTF-8" standalone="no"?>
<svg width="19px" height="19px" viewBox="0 0 19 19" version="1.1" xmlns="http://www.w3.org/2000/svg" xmlns:xlink="http://www.w3.org/1999/xlink" xmlns:sketch="http://www.bohemiancoding.com/sketch/ns">
    <!-- Generator: Sketch 3.4 (15575) - http://www.bohemiancoding.com/sketch -->
    <title>Search Icon Copy</title>
    <desc>Created with Sketch.</desc>
    <defs></defs>
    <g id="Page-1" stroke="none" stroke-width="1" fill="none" fill-rule="evenodd" sketch:type="MSPage">
        <g id="Catalog" sketch:type="MSArtboardGroup" transform="translate(-1230.000000, -48.000000)" fill="#9C9C9C">
            <g id="Group" sketch:type="MSLayerGroup" transform="translate(60.000000, 29.000000)">
                <path d="M1188.3504,35.7055656 L1183.69303,31.0136845 C1183.51817,30.8376617 1183.50068,30.566422 1183.63594,30.3590034 C1185.54548,27.4299231 1185.10011,23.4019874 1182.28285,20.9968579 C1179.57205,18.6817985 1175.44594,18.7615749 1172.81948,21.1718513 C1169.80474,23.9398347 1169.72863,28.6497299 1172.59217,31.5155037 C1175.034,33.9592347 1178.81348,34.2562088 1181.58857,32.4203224 C1181.79737,32.2823864 1182.07045,32.2998858 1182.24634,32.4774526 L1186.89343,37.15904 C1187.094,37.3613118 1187.42108,37.3618265 1187.62217,37.1600694 L1188.34937,36.4323028 C1188.54994,36.2315751 1188.55045,35.906808 1188.3504,35.7055656 L1188.3504,35.7055656 Z M1174.04657,30.0594559 C1172.05937,28.0707077 1172.05937,24.8348743 1174.04657,22.8461261 C1176.03377,20.8573779 1179.26708,20.8573779 1181.25428,22.8461261 C1183.24148,24.8348743 1183.24148,28.0707077 1181.25428,30.0594559 C1179.26708,32.0482041 1176.03377,32.0482041 1174.04657,30.0594559 L1174.04657,30.0594559 Z" id="Search-Icon-Copy" sketch:type="MSShapeGroup"></path>
            </g>
        </g>
    </g>
</svg>