<?xml version="1.0" encoding="UTF-8" standalone="no"?>
<svg width="19px" height="18px" viewBox="0 0 19 18" version="1.1" xmlns="http://www.w3.org/2000/svg" xmlns:xlink="http://www.w3.org/1999/xlink" xmlns:sketch="http://www.bohemiancoding.com/sketch/ns">
    <!-- Generator: Sketch 3.4 (15575) - http://www.bohemiancoding.com/sketch -->
    <title>Icon Copy 6</title>
    <desc>Created with Sketch.</desc>
    <defs></defs>
    <g id="Page-1" stroke="none" stroke-width="1" fill="none" fill-rule="evenodd" sketch:type="MSPage">
        <g id="Catalog" sketch:type="MSArtboardGroup" transform="translate(-1262.000000, -3392.000000)" fill="#BC8420">
            <path d="M1263,3400 L1268,3401 C1267.99249,3401.28188 1268.34847,3401.24487 1269,3401 L1278,3395 L1270,3402 C1270.10233,3402.63481 1269.98078,3402.90591 1270,3403 L1270,3409 C1269.95039,3410.04018 1270.75298,3410.20545 1271,3410 L1273,3405 C1273.23345,3404.83129 1273.58563,3404.71816 1274,3405 L1279,3408 C1279.81857,3408.05694 1280.25432,3407.82389 1280,3407 L1281,3393 C1281.01783,3392.16593 1280.61952,3391.89534 1280,3392 L1263,3399 C1262.8796,3398.83567 1262.88991,3399.46234 1263,3400" id="Icon-Copy-6" sketch:type="MSShapeGroup"></path>
        </g>
    </g>
</svg>