<?xml version="1.0" encoding="UTF-8" standalone="no"?>
<svg width="19px" height="17px" viewBox="0 0 19 17" version="1.1" xmlns="http://www.w3.org/2000/svg" xmlns:xlink="http://www.w3.org/1999/xlink" xmlns:sketch="http://www.bohemiancoding.com/sketch/ns">
    <!-- Generator: Sketch 3.4 (15575) - http://www.bohemiancoding.com/sketch -->
    <title>Twitter Copy</title>
    <desc>Created with Sketch.</desc>
    <defs></defs>
    <g id="Page-1" stroke="none" stroke-width="1" fill="none" fill-rule="evenodd" sketch:type="MSPage">
        <g id="Catalog" sketch:type="MSArtboardGroup" transform="translate(-1048.000000, -3467.000000)" fill="#7C7C7C" opacity="0.502623601">
            <g id="Social-Copy-2" sketch:type="MSLayerGroup" transform="translate(1048.000000, 3465.940175)">
                <path d="M17,6 C17.0623899,6.15838806 17.0663281,6.33284448 17,7 C17.0663281,11.8460754 13.1458182,18 6,18 C3.77479532,18 1.72593015,17.3317605 0,16 C0.305212975,16.222789 0.615348741,16.2421731 1,16 C2.75676236,16.2421731 4.43740284,15.5963782 6,15 C4.06523992,14.4802653 2.62581615,13.3121214 2,12 C2.36786195,11.7552764 2.61203233,11.7807817 3,12 C3.21852005,11.7807817 3.56311535,11.7307913 4,12 C2.10695409,11.2676146 0.764016997,9.63527386 1,8 C0.764016997,7.66116177 0.764016997,7.64381815 1,8 C1.28977096,7.92947778 1.89035133,8.11107569 3,8 C1.48372888,7.40814895 0.795522852,6.17165083 1,5 C0.795522852,4.03022381 0.987511659,3.33647899 1,3 C3.24608768,5.18306446 6.11804332,6.79194032 9,7 C9.29127371,6.6644137 9.25681418,6.35630938 9,6 C9.25681418,3.80883759 11.0014509,2 13,2 C14.2760908,2 15.289201,2.49072244 16,3 C16.8881231,3.09468852 17.7220437,2.75903845 18,2 C18.184786,3.23853854 17.5664836,4.03022381 17,5 C17.5497461,4.43320793 18.3009638,4.21590257 19,4 C18.4771997,4.70458458 17.8165613,5.41567302 17,6" id="Twitter-Copy" sketch:type="MSShapeGroup"></path>
            </g>
        </g>
    </g>
</svg>