<?xml version="1.0" encoding="UTF-8" standalone="no"?>
<svg width="22px" height="17px" viewBox="0 0 22 17" version="1.1" xmlns="http://www.w3.org/2000/svg" xmlns:xlink="http://www.w3.org/1999/xlink" xmlns:sketch="http://www.bohemiancoding.com/sketch/ns">
    <!-- Generator: Sketch 3.4 (15575) - http://www.bohemiancoding.com/sketch -->
    <title>Fill 25 Copy</title>
    <desc>Created with Sketch.</desc>
    <defs></defs>
    <g id="Page-1" stroke="none" stroke-width="1" fill="none" fill-rule="evenodd" sketch:type="MSPage">
        <g id="Catalog" sketch:type="MSArtboardGroup" transform="translate(-1120.000000, -3467.000000)" fill="#7C7C7C" opacity="0.502623601">
            <g id="Social-Copy-2" sketch:type="MSLayerGroup" transform="translate(1048.000000, 3465.940175)">
                <path d="M81,13 L81,7 L87,10 L81,13 Z M94,5 C93.78,5.45137068 93.5648125,3.88385836 93,3 C92.0688125,2.28719954 91.1310625,2.2829342 91,2 L83,2 L83,2 L75,2 C74.86825,2.2829342 73.9311875,2.28719954 73,3 C72.4345,3.88385836 72.22,5.45137068 72,5 C72.22,5.45137068 72,7.29257564 72,9 L72,11 C72,12.7003155 72.22,14.5408095 72,15 C72.22,14.5408095 72.4345,16.1083219 73,17 C73.9311875,17.7049807 75.0305,17.6765451 76,18 C77.28,17.9459724 83,18 83,18 C83,18 87.62275,17.9928911 91,18 C91.1310625,17.709246 92.0688125,17.7049807 93,17 C93.5648125,16.1083219 93.78,14.5408095 94,15 C93.78,14.5408095 94,12.7003155 94,11 L94,9 C94,7.29257564 93.78,5.45137068 94,5 L94,5 Z" id="Fill-25-Copy" sketch:type="MSShapeGroup"></path>
            </g>
        </g>
    </g>
</svg>